<?xml version="1.0" encoding="UTF-8" standalone="no"?>
<!-- Created with Inkscape (http://www.inkscape.org/) -->

<svg
   width="11in"
   height="8.5in"
   viewBox="0 0 279.4 215.9"
   version="1.1"
   id="svg5"
   inkscape:version="1.1.2 (b8e25be8, 2022-02-05)"
   sodipodi:docname="climate_perturbations_diagram.svg"
   xmlns:inkscape="http://www.inkscape.org/namespaces/inkscape"
   xmlns:sodipodi="http://sodipodi.sourceforge.net/DTD/sodipodi-0.dtd"
   xmlns:xlink="http://www.w3.org/1999/xlink"
   xmlns="http://www.w3.org/2000/svg"
   xmlns:svg="http://www.w3.org/2000/svg">
  <sodipodi:namedview
     id="namedview7"
     pagecolor="#505050"
     bordercolor="#eeeeee"
     borderopacity="1"
     inkscape:pageshadow="0"
     inkscape:pageopacity="0"
     inkscape:pagecheckerboard="0"
     inkscape:document-units="mm"
     showgrid="false"
     units="in"
     inkscape:zoom="0.80354938"
     inkscape:cx="413.78913"
     inkscape:cy="299.2971"
     inkscape:window-width="1280"
     inkscape:window-height="673"
     inkscape:window-x="0"
     inkscape:window-y="28"
     inkscape:window-maximized="0"
     inkscape:current-layer="g213" />
  <defs
     id="defs2">
    <linearGradient
       inkscape:collect="always"
       id="linearGradient6288">
      <stop
         style="stop-color:#80e5ff;stop-opacity:1"
         offset="0"
         id="stop6284" />
      <stop
         style="stop-color:#aaeeff;stop-opacity:1"
         offset="1"
         id="stop6286" />
    </linearGradient>
    <linearGradient
       inkscape:collect="always"
       xlink:href="#linearGradient6288"
       id="linearGradient6290"
       x1="-0.65853661"
       y1="70.792686"
       x2="189.82317"
       y2="152.4865"
       gradientUnits="userSpaceOnUse" />
  </defs>
  <g
     inkscape:label="Layer 1"
     inkscape:groupmode="layer"
     id="layer1">
    <path
       style="fill:none;stroke:#000000;stroke-width:0.264583px;stroke-linecap:butt;stroke-linejoin:miter;stroke-opacity:1"
       d="m 0,52.353659 13.993902,7.573169 12.182927,2.140243 3.786585,3.786587 5.432928,1.317072 2.798781,1.481709 3.128047,2.798779 3.128049,0.987806 5.926828,7.90244 7.90244,1.152437 11.030487,4.774391 11.359756,9.054877 7.737805,-1.317072 6.914634,2.140244 5.926831,3.951219 9.71341,-0.987806 13.66464,7.573166 5.26829,3.12805 5.7622,2.96342 2.96341,1.48171 3.29268,1.4817 3.12805,1.64635 5.59756,2.14024 5.59756,1.81097 4.28049,1.31708 7.07927,0.4939 7.90244,0.82317 3.29268,0.32927 5.10366,0.82317 h 8.72561 l 9.38414,0.16463 7.24391,0.49391 h 7.07927 l 0.16463,15.14634 -11.68902,4.60975 -10.04269,2.63415 -4.93902,3.78659 -7.90244,2.46951 -17.45122,15.96951 -8.06707,-2.79878 -5.92683,-6.2561 -8.39634,-4.60975 -6.2561,-6.09147 -9.05488,-5.76219 -6.75,-3.95122 -4.28049,-0.98781 -6.42073,0.16464 -7.40854,-2.79878 -6.914629,-5.2683 -8.067072,-5.43292 -5.268293,-3.45732 -7.408537,-0.65854 -9.713415,0.98781 -4.774391,0.65854 -2.469512,0.4939 -6.75,-2.14025 -7.079268,-6.09146 -9.054877,-6.75 -5.762194,-5.10366 -5.103659,-2.79878 -4.939025,-2.798778 -4.77439,-1.646343 -3.457317,-2.140244 -4.4451217,-2.140244 -7.2439025,-1.64634 0.1646342,-39.347561 z"
       id="path102" />
  </g>
  <g
     inkscape:label="Layer 1 copy"
     inkscape:groupmode="layer"
     id="g188">
    <path
       style="fill:none;stroke:#000000;stroke-width:0.264583px;stroke-linecap:butt;stroke-linejoin:miter;stroke-opacity:1"
       d="m 0,52.882826 13.993902,7.573169 12.182927,2.140243 3.786585,3.786587 5.432928,1.317072 2.798781,1.481709 3.128047,2.798779 3.128049,0.987806 5.926828,7.90244 7.90244,1.152437 11.030487,4.774391 11.359756,9.054877 7.737805,-1.317072 6.914634,2.140244 5.926831,3.951222 9.71341,-0.987809 13.66464,7.573169 5.26829,3.12805 5.7622,2.96342 2.96341,1.48171 3.29268,1.4817 3.12805,1.64635 5.59756,2.14024 5.59756,1.81097 4.28049,1.31708 7.07927,0.4939 7.90244,0.82317 3.29268,0.32927 5.10366,0.82317 h 8.72561 l 9.38414,0.16463 7.24391,0.49391 h 7.07927 l 0.16463,15.14634 -11.68902,4.60975 -10.04269,2.63415 -4.93902,3.78659 -7.90244,2.46951 -17.45122,15.96951 -8.06707,-2.79878 -5.92683,-6.2561 -8.39634,-4.60975 -6.2561,-6.09147 -9.05488,-5.76219 -6.75,-3.95122 -4.28049,-0.98781 -6.42073,0.16464 -7.40854,-2.79878 -6.914629,-5.2683 -8.067072,-5.43292 -5.268293,-3.45732 -7.408537,-0.65854 -9.713415,0.98781 -4.774391,0.65854 -2.469512,0.4939 -6.75,-2.14025 -7.079268,-6.09146 -9.054877,-6.75 -5.762194,-5.10366 -5.103659,-2.79878 -4.939025,-2.798781 -4.77439,-1.646343 -3.457317,-2.140244 -4.4451217,-2.140244 -7.2439025,-1.64634 0.1646342,-39.347561 z"
       id="path186" />
  </g>
  <g
     inkscape:label="Layer 1 copy copy"
     inkscape:groupmode="layer"
     id="g213">
    <rect
       style="fill:none;stroke-width:0.264583"
       id="rect941"
       width="7.6511145"
       height="3.376559"
       x="216.32927"
       y="122.9331"
       ry="0" />
    <rect
       style="fill:none;stroke-width:0.264583"
       id="rect943"
       width="16.40538"
       height="15.146344"
       x="216.32927"
       y="125.78049" />
    <rect
       style="fill:none;stroke-width:0.264583"
       id="rect1047"
       width="16.57"
       height="3.3021197"
       x="216.32927"
       y="126.30965"
       ry="0" />
    <rect
       style="fill:none;stroke-width:0.264583"
       id="rect1049"
       width="16.24074"
       height="26.46139"
       x="216.49391"
       y="114.46544" />
    <path
       style="fill:url(#linearGradient6290);stroke:#0088ec;stroke-width:0.5;stroke-linecap:butt;stroke-linejoin:miter;stroke-opacity:1;fill-opacity:1;stroke-miterlimit:4;stroke-dasharray:none"
       d="m 0,52.353659 13.993902,7.573169 12.182927,2.140243 3.786585,3.786587 5.432928,1.317072 2.798781,1.481709 3.128047,2.798779 3.128049,0.987806 5.926828,7.90244 7.90244,1.152437 11.030487,4.774391 11.359756,9.054877 7.737805,-1.317072 6.914634,2.140244 5.926831,3.951219 9.71341,-0.987806 13.66464,7.573166 5.26829,3.12805 5.7622,2.96342 2.96341,1.48171 3.29268,1.4817 3.12805,1.64635 5.59756,2.14024 5.59756,1.81097 4.28049,1.31708 7.07927,0.4939 7.90244,0.82317 3.29268,0.32927 5.10366,0.82317 h 8.72561 l 9.38414,0.16463 7.24391,0.49391 h 7.07927 l 0.16463,15.14634 -11.68902,4.60975 -10.04269,2.63415 -4.93902,3.78659 -7.90244,2.46951 -17.45122,15.96951 -8.06707,-2.79878 -5.92683,-6.2561 -8.39634,-4.60975 -6.2561,-6.09147 -9.05488,-5.76219 -6.75,-3.95122 -4.28049,-0.98781 -6.42073,0.16464 -7.40854,-2.79878 -6.914629,-5.2683 -8.067072,-5.43292 -5.268293,-3.45732 -7.408537,-0.65854 -9.713415,0.98781 -4.774391,0.65854 -2.469512,0.4939 -6.75,-2.14025 -7.079268,-6.09146 -9.054877,-6.75 -5.762194,-5.10366 -5.103659,-2.79878 -4.939025,-2.798778 -4.77439,-1.646343 -3.457317,-2.140244 -4.4451217,-2.140244 -7.2439025,-1.64634 0.1646342,-39.347561 z"
       id="path211" />
    <path
       style="fill:#f9f9f9;stroke:#0088ec;stroke-width:0.5;stroke-linecap:butt;stroke-linejoin:miter;stroke-opacity:1;stroke-miterlimit:4;stroke-dasharray:none"
       d="m -1.5111037,35.69527 17.9160387,5.34334 13.993832,7.573169 12.18292,2.140243 3.786581,3.786587 5.432928,1.317072 5.926828,4.280488 3.12805,0.987806 5.926825,7.90244 7.90244,1.152437 11.030487,4.774391 11.359758,9.054877 7.737806,-1.317072 6.91463,2.140244 5.92683,3.951219 9.71342,-0.987806 34.0794,18.274395 15.4757,5.26829 23.37818,2.46951 16.19236,0.65854 h 9.16144 7.07929 l -16.40537,11.31505 H 209.25 l -25.35366,-0.65854 -23.37805,-2.46951 -15.47561,-4.73912 L 110.96341,99.63892 101.25,100.09756 95.323167,96.146341 88.408533,94.006095 80.67073,95.852336 69.310974,86.797458 58.280487,82.023068 50.378047,80.87063 44.451219,72.96819 41.32317,71.451218 38.195123,69.181606 35.396342,67.699897 29.963414,66.382825 26.176829,62.596238 13.993902,60.455994 0,52.882826 -1.152439,52.02439 Z"
       id="path2124" />
    <path
       style="fill:#aaeeff;stroke:#0088ec;stroke-width:0.5;stroke-linecap:butt;stroke-linejoin:miter;stroke-opacity:1;stroke-miterlimit:4;stroke-dasharray:none"
       d="m 216.32927,125.78049 0.16464,15.14634 16.40536,-11.31505 -0.16462,-15.14634 z"
       id="path1940" />
    <path
       style="fill:none;stroke:#005ccb;stroke-width:1.25;stroke-linecap:butt;stroke-linejoin:miter;stroke-opacity:1;stroke-miterlimit:4;stroke-dasharray:5, 1.25;stroke-dashoffset:0"
       d="m -8.3902708,40.98694 17.9160351,5.34334 13.9938317,7.573169 12.18292,2.140243 3.786581,3.786587 5.432928,1.317072 5.926828,4.280488 3.12805,0.987806 5.926825,7.90244 7.90244,1.152437 11.030487,4.774391 11.359758,9.054875 7.737779,-1.317072 6.914618,2.140246 5.92683,3.951219 9.71342,-0.987806 34.0794,18.274425 15.4757,5.26829 23.37818,2.46951 16.19236,0.65854 h 16.24073 l 13.13156,0.0859"
       id="path2505" />
  </g>
</svg>
